<svg width="48" height="49" viewBox="0 0 48 49" fill="none" xmlns="http://www.w3.org/2000/svg">
<rect y="0.75" width="48" height="48" rx="24" fill="#fff"/>
<g clip-path="url(#clip0_1117_21308)">
<path d="M28.6681 20.7499C28.6681 20.3963 28.5277 20.0572 28.2776 19.8071C28.0276 19.5571 27.6884 19.4166 27.3348 19.4166H20.6681C20.3145 19.4166 19.9754 19.5571 19.7253 19.8071C19.4753 20.0572 19.3348 20.3963 19.3348 20.7499C19.3348 21.1035 19.4753 21.4427 19.7253 21.6927C19.9754 21.9428 20.3145 22.0832 20.6681 22.0832H23.3348C23.6884 22.0832 24.0276 22.2237 24.2776 22.4738C24.5277 22.7238 24.6681 23.063 24.6681 23.4166C24.6681 23.7702 24.5277 24.1093 24.2776 24.3594C24.0276 24.6094 23.6884 24.7499 23.3348 24.7499H22.0015C21.7029 24.7517 21.4136 24.8536 21.1798 25.0394C20.9461 25.2251 20.7814 25.484 20.7123 25.7744C20.6431 26.0648 20.6735 26.3701 20.7984 26.6413C20.9234 26.9124 21.1357 27.1338 21.4015 27.2699L26.7348 29.9366C26.9192 30.0352 27.1256 30.0857 27.3348 30.0832C27.581 30.0825 27.8222 30.0136 28.0317 29.8842C28.2411 29.7547 28.4107 29.5698 28.5215 29.3499C28.6848 29.0431 28.7218 28.6846 28.6247 28.3509C28.5275 28.0171 28.3039 27.7345 28.0015 27.5632L25.9215 26.5232C26.5494 25.9933 26.9989 25.2828 27.2088 24.4884C27.4187 23.694 27.3789 22.8542 27.0948 22.0832H27.3348C27.6884 22.0832 28.0276 21.9428 28.2776 21.6927C28.5277 21.4427 28.6681 21.1035 28.6681 20.7499ZM24.0015 11.4166C22.2505 11.4166 20.5167 11.7615 18.899 12.4315C17.2813 13.1016 15.8115 14.0837 14.5734 15.3218C12.0729 17.8223 10.6681 21.2137 10.6681 24.7499C10.6655 25.2486 10.6961 25.7486 10.7615 26.2432C10.8039 26.5969 10.9851 26.9192 11.2651 27.1392C11.5452 27.3592 11.9012 27.459 12.2548 27.4166C12.6084 27.3741 12.9307 27.193 13.1507 26.9129C13.3708 26.6329 13.4706 26.2769 13.4281 25.9232C13.3767 25.534 13.3455 25.1424 13.3348 24.7499C13.329 22.3114 14.159 19.9445 15.6864 18.0435C17.2138 16.1426 19.3464 14.8224 21.729 14.3029C24.1116 13.7834 26.6002 14.0959 28.7804 15.1885C30.9605 16.281 32.7004 18.0875 33.7103 20.3071C34.7203 22.5267 34.9392 25.0254 34.3306 27.3868C33.722 29.7481 32.3227 31.8297 30.3657 33.2847C28.4088 34.7397 26.0124 35.4802 23.5758 35.3829C21.1392 35.2856 18.8095 34.3563 16.9748 32.7499H18.0015C18.3551 32.7499 18.6942 32.6094 18.9443 32.3594C19.1943 32.1093 19.3348 31.7702 19.3348 31.4166C19.3348 31.063 19.1943 30.7238 18.9443 30.4738C18.6942 30.2237 18.3551 30.0832 18.0015 30.0832H14.0015C13.6478 30.0832 13.3087 30.2237 13.0587 30.4738C12.8086 30.7238 12.6681 31.063 12.6681 31.4166V35.4166C12.6681 35.7702 12.8086 36.1093 13.0587 36.3594C13.3087 36.6094 13.6478 36.7499 14.0015 36.7499C14.3551 36.7499 14.6942 36.6094 14.9443 36.3594C15.1943 36.1093 15.3348 35.7702 15.3348 35.4166V34.8432C16.9648 36.2502 18.9114 37.2415 21.0079 37.7322C23.1045 38.223 25.2888 38.1987 27.3739 37.6614C29.4591 37.1241 31.3831 36.0898 32.9814 34.6469C34.5797 33.2041 35.8048 31.3956 36.5519 29.3761C37.299 27.3566 37.5459 25.1862 37.2715 23.0505C36.9971 20.9148 36.2095 18.8773 34.976 17.1123C33.7426 15.3473 32.1001 13.9073 30.1889 12.9154C28.2777 11.9235 26.1547 11.4092 24.0015 11.4166Z" fill="#FF5021"/>
</g>
<defs>
<clipPath id="clip0_1117_21308">
<rect width="32" height="32" fill="white" transform="translate(8 8.75)"/>
</clipPath>
</defs>
</svg>
