<svg width="24" height="24" viewBox="0 0 24 24" fill="none" xmlns="http://www.w3.org/2000/svg">
<g clip-path="url(#clip0_1060_20817)">
<path d="M12 2C9.34784 2 6.8043 3.05357 4.92893 4.92893C3.05357 6.8043 2 9.34784 2 12C2 14.6522 3.05357 17.1957 4.92893 19.0711C6.8043 20.9464 9.34784 22 12 22C14.6522 22 17.1957 20.9464 19.0711 19.0711C20.9464 17.1957 22 14.6522 22 12C22 9.34784 20.9464 6.8043 19.0711 4.92893C17.1957 3.05357 14.6522 2 12 2ZM17.21 9.71L11.21 15.71C11.1169 15.8035 11.0063 15.8777 10.8844 15.9283C10.7626 15.9789 10.6319 16.005 10.5 16.005C10.3681 16.005 10.2374 15.9789 10.1156 15.9283C9.99374 15.8777 9.8831 15.8035 9.79 15.71L6.79 12.71C6.69676 12.6168 6.6228 12.5061 6.57234 12.3842C6.52188 12.2624 6.49591 12.1319 6.49591 12C6.49591 11.7337 6.6017 11.4783 6.79 11.29C6.9783 11.1017 7.2337 10.9959 7.5 10.9959C7.7663 10.9959 8.0217 11.1017 8.21 11.29L10.5 13.59L15.79 8.29C15.9783 8.1017 16.2337 7.99591 16.5 7.99591C16.7663 7.99591 17.0217 8.1017 17.21 8.29C17.3983 8.4783 17.5041 8.7337 17.5041 9C17.5041 9.2663 17.3983 9.5217 17.21 9.71Z" fill="#F178B6"/>
</g>
<defs>
<clipPath id="clip0_1060_20817">
<rect width="24" height="24" fill="white"/>
</clipPath>
</defs>
</svg>
