<svg viewBox="0 0 48 48" fill="none" xmlns="http://www.w3.org/2000/svg">
<rect width="48" height="48" rx="24" fill="#1E1E1E"/>
<g clip-path="url(#clip0_1060_20766)">
<path d="M34.92 11.2C34.5877 10.9539 34.2027 10.7884 33.7954 10.7167C33.3881 10.645 32.9697 10.6689 32.5733 10.7867L21.9066 13.9867C21.3574 14.15 20.8754 14.4859 20.5319 14.9446C20.1885 15.4033 20.002 15.9604 20 16.5334V27.4C18.9825 26.8126 17.7996 26.5776 16.6348 26.7315C15.4701 26.8853 14.3888 27.4195 13.5588 28.251C12.7287 29.0825 12.1965 30.1647 12.0447 31.3298C11.8929 32.4948 12.13 33.6773 12.7193 34.6937C13.3085 35.7101 14.2168 36.5035 15.3032 36.9507C16.3897 37.3979 17.5933 37.4739 18.7273 37.1668C19.8614 36.8597 20.8622 36.1868 21.5746 35.2525C22.2869 34.3182 22.6708 33.1749 22.6666 32V16.5334L33.3333 13.3334V24.7334C32.3159 24.146 31.1329 23.9109 29.9682 24.0648C28.8034 24.2187 27.7221 24.7528 26.8921 25.5843C26.0621 26.4158 25.5299 27.4981 25.378 28.6631C25.2262 29.8281 25.4634 31.0106 26.0526 32.027C26.6418 33.0434 27.5502 33.8369 28.6366 34.2841C29.723 34.7313 30.9267 34.8072 32.0607 34.5001C33.1947 34.1931 34.1956 33.5201 34.9079 32.5858C35.6202 31.6516 36.0041 30.5082 36 29.3334V13.3334C35.9984 12.9183 35.9 12.5092 35.7125 12.1389C35.525 11.7685 35.2536 11.447 34.92 11.2Z" fill="#F178B6"/>
</g>
<defs>
<clipPath id="clip0_1060_20766">
<rect width="32" height="32" fill="white" transform="translate(8 8)"/>
</clipPath>
</defs>
</svg>
