<svg viewBox="0 0 85 36" fill="none" xmlns="http://www.w3.org/2000/svg">
<path fill-rule="evenodd" clip-rule="evenodd" d="M83.2152 29.8303C81.4559 29.8952 79.9898 31.2006 79.754 32.9214L77.6059 33.1191C74.2014 33.4324 72.4992 33.589 71.4719 32.5747C70.4446 31.5604 70.5797 29.8563 70.8498 26.4482L71.2155 21.8339C71.3982 19.5297 71.4895 18.3776 72.2042 17.5924C72.919 16.8071 74.0574 16.6082 76.3343 16.2103L77.0432 16.0864C77.411 16.0221 77.5949 15.99 77.7085 15.8622C77.822 15.7345 77.8323 15.5481 77.853 15.1752L78.5422 2.73627C78.5662 2.30363 78.5782 2.08731 78.629 1.89462C78.7596 1.39968 79.0787 0.97547 79.518 0.712693C79.689 0.610388 79.8935 0.538869 80.3025 0.395829C81.0658 0.128917 81.4474 -0.00453863 81.7104 0.000117763C82.4307 0.012871 82.9808 0.470341 83.1247 1.17624C83.1773 1.43398 83.1095 1.8733 82.974 2.75194L82.974 2.75194L82.974 2.75196C82.8041 3.85337 82.7568 4.80326 82.672 6.50764L82.672 6.50773L82.6719 6.50785C82.6434 7.08018 82.6107 7.73758 82.5677 8.51436C82.4652 10.3628 82.5188 13.4143 82.7433 16.7828C82.0317 17.3948 81.5622 18.2778 81.5066 19.2804C81.4316 20.6336 82.1303 21.8536 83.2235 22.5237C82.1788 23.2625 81.4597 24.5002 81.3801 25.936C81.2905 27.5531 82.035 29.0101 83.2152 29.8303ZM74.7494 23.8998L74.5994 27.9174C74.5698 28.7101 74.555 29.1065 74.7429 29.4052C74.7947 29.4875 74.8567 29.5628 74.9275 29.6294C75.1846 29.8712 75.5764 29.9328 76.3601 30.056C77.2796 30.2005 77.7393 30.2728 78.0862 30.0765C78.1811 30.0228 78.2678 29.9558 78.3437 29.8776C78.6212 29.5915 78.6674 29.1285 78.7599 28.2023L79.159 24.2018C79.2747 23.0429 79.3325 22.4635 79.0133 22.092C78.9848 22.0589 78.9544 22.0274 78.9223 21.9977C78.5627 21.6653 77.9815 21.7021 76.8192 21.7756C75.905 21.8335 75.4478 21.8625 75.1488 22.1409C75.1216 22.1662 75.0958 22.1927 75.0712 22.2205C74.8006 22.5267 74.7835 22.9844 74.7494 23.8998Z" fill="#F8EA65"/>
<path fill-rule="evenodd" clip-rule="evenodd" d="M59.921 23.9649L59.0988 23.9983C58.4624 24.0241 58.1442 24.0371 57.9896 23.8342C57.8349 23.6312 57.9317 23.3279 58.1253 22.7211L58.8913 20.3208C59.3619 18.8464 59.5971 18.1092 60.1705 17.6723C60.7438 17.2354 61.517 17.2042 63.0634 17.1416L64.8704 17.0685C67.4457 16.9644 68.7333 16.9123 69.4972 17.7069C70.261 18.5015 70.1583 19.786 69.9529 22.3552L69.5302 27.64C69.3012 30.5037 69.1867 31.9356 68.2578 32.8358C67.329 33.736 65.8943 33.8057 63.0248 33.945H63.0247L63.0247 33.945L61.3842 34.0247C59.396 34.1212 58.4019 34.1695 57.7898 33.5668C57.1776 32.964 57.2105 31.9693 57.2762 29.9799L57.3151 28.8033C57.3688 27.177 57.3957 26.3639 57.8956 25.8268C58.3955 25.2896 59.2046 25.2045 60.8228 25.0342H60.8228L63.6256 24.7393C63.9379 24.7064 64.0941 24.69 64.2078 24.5964C64.3215 24.5028 64.3676 24.3526 64.4598 24.0524L65.0316 22.191L65.0316 22.191C65.2316 21.5401 65.3316 21.2147 65.1607 21.0106C64.9897 20.8066 64.6518 20.8479 63.9759 20.9305L63.9759 20.9305L63.262 21.0178C62.9574 21.055 62.8051 21.0736 62.6942 21.166C62.5833 21.2583 62.5374 21.4047 62.4457 21.6976L62.3088 22.1348C62.0431 22.9831 61.9102 23.4073 61.5818 23.659C61.2534 23.9107 60.8093 23.9288 59.921 23.9649ZM64.1676 27.673L62.1742 28.0191C61.8466 28.076 61.6828 28.1044 61.5495 28.165C61.2288 28.3108 60.9932 28.5962 60.9109 28.9388C60.8767 29.0812 60.8799 29.2474 60.8862 29.5798C60.8938 29.9797 60.8976 30.1796 60.9488 30.3393C61.0725 30.725 61.391 31.0164 61.7861 31.1055C61.9497 31.1424 62.1491 31.1285 62.5481 31.1007L64.5664 30.9601C64.993 30.9304 65.2063 30.9156 65.3795 30.8434C65.663 30.7252 65.8871 30.498 66.0012 30.2128C66.0709 30.0386 66.0827 29.8251 66.1064 29.3981C66.1389 28.8113 66.1552 28.518 66.075 28.2977C65.9433 27.9361 65.6386 27.665 65.2642 27.5763C65.036 27.5222 64.7466 27.5725 64.1676 27.673Z" fill="#F8EA65"/>
<path fill-rule="evenodd" clip-rule="evenodd" d="M32.3414 22.2942L32.4505 30.4264C32.4746 32.2179 32.4866 33.1137 33.0451 33.6761C33.6036 34.2384 34.4993 34.2566 36.2906 34.293L40.1541 34.3715C41.8066 34.4051 42.6328 34.4219 43.199 33.9405C43.7652 33.4592 43.8817 32.641 44.1146 31.0048L45.2433 23.0768C45.525 21.098 45.6659 20.1086 45.1193 19.4424C44.5728 18.7762 43.575 18.7209 41.5793 18.6103L36.478 18.3276C34.5135 18.2188 33.5312 18.1644 32.9165 18.7538C32.3018 19.3432 32.315 20.3269 32.3414 22.2942ZM36.1457 24.4572L36.3086 28.6271C36.3475 29.6219 36.367 30.1193 36.6767 30.4345C36.6862 30.4441 36.6959 30.4536 36.7057 30.463C37.0265 30.7669 37.5241 30.7773 38.5195 30.7981C39.4763 30.8181 39.9547 30.8281 40.2834 30.5535C40.2935 30.5451 40.3035 30.5365 40.3133 30.5277C40.6323 30.2419 40.6912 29.767 40.8092 28.8173L41.3191 24.7101C41.4551 23.6143 41.5232 23.0665 41.2217 22.6898C40.9202 22.3132 40.3708 22.2596 39.2718 22.1525L38.6526 22.0921C37.4379 21.9736 36.8305 21.9143 36.4524 22.2711C36.0742 22.6279 36.0981 23.2377 36.1457 24.4572Z" fill="#F8EA65"/>
<path fill-rule="evenodd" clip-rule="evenodd" d="M20.0418 20.7614L17.6955 28.1907C16.9546 30.5367 16.5841 31.7097 17.1764 32.5124C17.7687 33.3151 18.9987 33.3071 21.4589 33.2912H21.4589H21.4589L27.4446 33.2524C29.2842 33.2405 30.204 33.2345 30.7738 32.6601C31.3436 32.0857 31.3421 31.1659 31.3392 29.3262V29.3262L31.3274 21.939C31.3244 20.0953 31.3229 19.1734 30.7497 18.6006C30.1764 18.0277 29.2546 18.0269 27.4109 18.0252L23.7833 18.022C22.397 18.0207 21.7038 18.0201 21.1859 18.3993C20.6681 18.7784 20.4593 19.4394 20.0418 20.7614ZM25.3832 21.8991L25.737 21.8986C26.9072 21.8969 27.4924 21.896 27.8329 22.2676C28.1735 22.6393 28.1217 23.2221 28.018 24.3878L27.7556 27.3397C27.6675 28.3308 27.6234 28.8263 27.2951 29.1262C26.9668 29.4262 26.4693 29.4254 25.4743 29.4239L24.5733 29.4225C23.1983 29.4203 22.5108 29.4193 22.1683 28.9694C21.8258 28.5194 22.0078 27.8565 22.3717 26.5305L23.1814 23.5805C23.4031 22.7729 23.5139 22.3691 23.8205 22.135C24.127 21.901 24.5458 21.9003 25.3832 21.8991Z" fill="#F8EA65"/>
<path d="M7.16746 12.0857L2.46691 11.8253C1.90986 11.7944 1.63134 11.779 1.47447 11.9517C1.3176 12.1244 1.3597 12.4002 1.44392 12.9517L4.04077 29.9585C4.38926 32.2408 4.5635 33.3819 5.3807 33.983C6.1979 34.584 7.33913 34.4104 9.62159 34.0632L11.2837 33.8103C12.6298 33.6055 13.3029 33.5031 13.8118 33.1014C14.3206 32.6997 14.5763 32.0687 15.0879 30.8068L19.6805 19.4765C20.1766 18.2525 20.4247 17.6405 20.1323 17.2077C19.8399 16.7749 19.1795 16.7767 17.8587 16.7803L14.756 16.7886C14.4343 16.7895 14.2734 16.7899 14.1491 16.8747C14.0248 16.9594 13.9657 17.109 13.8473 17.4082L11.2477 23.9805C10.678 25.4206 10.3932 26.1406 10.0147 26.0914C9.63622 26.0421 9.5452 25.2731 9.36316 23.7352L8.08645 12.949C8.0402 12.5582 8.01707 12.3629 7.88695 12.2406C7.75682 12.1184 7.56037 12.1075 7.16746 12.0857Z" fill="#F8EA65"/>
<path d="M45.3584 32.3319L47.9634 14.388C48.0123 14.0516 48.0367 13.8833 48.1463 13.7697C48.2558 13.6561 48.4231 13.6256 48.7576 13.5647L50.0544 13.3285C51.1495 13.129 51.6971 13.0292 52.0009 13.3452C52.3047 13.6612 52.1836 14.2044 51.9413 15.2909L50.5399 21.5744L53.5072 17.8866C53.6476 17.7122 53.7177 17.625 53.8148 17.5771C53.9118 17.5292 54.0237 17.5265 54.2475 17.5212L55.8953 17.4822C57.5159 17.4438 58.3261 17.4246 58.5505 17.9128C58.7748 18.4009 58.2325 19.0033 57.1478 20.2079L52.3905 25.4918L55.8208 32.0309C56.4138 33.1612 56.7103 33.7264 56.453 34.1264C56.1958 34.5264 55.5586 34.4911 54.284 34.4205L51.924 34.2897C51.6178 34.2727 51.4647 34.2642 51.348 34.1795C51.2313 34.0948 51.1758 33.9519 51.0647 33.666L49.0506 28.481L49.2055 32.3891C49.224 32.8575 49.2333 33.0917 49.0928 33.2414C48.9523 33.391 48.718 33.3965 48.2494 33.4076L46.3514 33.4525C45.8132 33.4652 45.5441 33.4715 45.3932 33.3013C45.2424 33.131 45.281 32.8647 45.3584 32.3319Z" fill="#F8EA65"/>
<path d="M83.6358 32.8111C83.2574 32.3773 82.9272 32.0945 82.3887 31.7867C82.215 31.6875 81.9972 31.7776 81.9688 31.9756C81.9113 32.3764 81.9378 32.909 82.2822 33.243C82.6443 33.5942 83.1867 33.4491 83.5668 33.2509C83.7313 33.1652 83.7577 32.9509 83.6358 32.8111Z" fill="#F8EA65"/>
<path d="M82.5694 25.3391C82.7065 24.2091 83.8738 24.7277 84.4984 25.3139C84.6301 25.4376 84.6042 25.645 84.4455 25.7312C83.6695 26.1531 82.4578 26.2595 82.5694 25.3391Z" fill="#F8EA65"/>
<ellipse cx="0.812475" cy="0.491582" rx="0.812475" ry="0.491582" transform="matrix(0.495696 -0.868496 0.868497 0.495694 83.3398 21.4647)" fill="#F8EA65"/>
</svg>
